<svg xmlns="http://www.w3.org/2000/svg" width="400" height="300" xml:space="preserve"><linearGradient id="a" gradientUnits="userSpaceOnUse" x1="473.7" y1="1526.9" x2="460.8" y2="1502.8" gradientTransform="translate(-430 -1372)"><stop offset="0" style="stop-color:#0070b6"/><stop offset="1" style="stop-color:#1d2c5e"/></linearGradient><path fill="url(#a)" d="m26 133 16 26 6-6-17-25z"/><path fill="#0071B9" d="m257 112-1 4 7-3-1-4z"/><linearGradient id="b" gradientUnits="userSpaceOnUse" x1="631.2" y1="1477.7" x2="647.6" y2="1460.2" gradientTransform="translate(-430 -1372)"><stop offset="0" style="stop-color:#0070b6"/><stop offset="1" style="stop-color:#1d2c5e"/></linearGradient><path fill="url(#b)" d="m213 89-23 27 6-2 23-28z"/><path fill="#1D2C5E" d="m341 126 6-3-2 14zM305 135l5 1 7-3-6-2z"/><linearGradient id="c" gradientUnits="userSpaceOnUse" x1="559.7" y1="1507" x2="557.7" y2="1490.6" gradientTransform="translate(-430 -1372)"><stop offset="0" style="stop-color:#0070b6"/><stop offset="1" style="stop-color:#1d2c5e"/></linearGradient><path fill="url(#c)" d="m125 120 1 17 7-3-2-17z"/><linearGradient id="d" gradientUnits="userSpaceOnUse" x1="738.8" y1="1503.9" x2="738" y2="1489" gradientTransform="translate(-430 -1372)"><stop offset="0" style="stop-color:#125d9e"/><stop offset="1" style="stop-color:#1d2c5e"/></linearGradient><path fill="url(#d)" d="m310 115-6 3 1 17 6-3 1-8z"/><path fill="#312370" d="m309 136-6 58 10-2 2-59z"/><path fill="#21386E" d="M322 196v8l20 6 6-3-19-15-20-1-6 3zM249 183l5-3 3 6 4-3 1 8 29 5 6-3-40-24-28 5-6 5z"/><linearGradient id="e" gradientUnits="userSpaceOnUse" x1="684.1" y1="1482.5" x2="666.9" y2="1509.9" gradientTransform="translate(-430 -1372)"><stop offset="0" style="stop-color:#125d9e"/><stop offset="1" style="stop-color:#1d2c5e"/></linearGradient><path fill="url(#e)" d="m240 112-6 4-11 63 6-3 10-36z"/><path fill="#1D2C5E" d="m194 121-5 2 1 2 10-7-4-5-6 3z"/><path fill="#21386E" d="m206 195-47-23 6-4 47 24z"/><path fill="#1D2C5E" d="m164 109-7 14 7-3 6-14z"/><linearGradient id="f" gradientUnits="userSpaceOnUse" x1="531.8" y1="1526.4" x2="543.5" y2="1549.5" gradientTransform="translate(-430 -1372)"><stop offset="0" style="stop-color:#105fa1"/><stop offset="1" style="stop-color:#1d2c5e"/></linearGradient><path fill="url(#f)" d="m99 165-6 4 3 11c2 5 6 9 6 9 2 2 5 4 9 5 7 2 14 1 20-4l6-4c-7 4-38-21-38-21z"/><path fill="#1D2C5E" d="m131 135 6 61 22-4 6-3-27-57-6 2-6 3z"/><linearGradient id="g" gradientUnits="userSpaceOnUse" x1="487.5" y1="1518.5" x2="501.1" y2="1550" gradientTransform="translate(-430 -1372)"><stop offset="0" style="stop-color:#105fa1"/><stop offset="1" style="stop-color:#1d2c5e"/></linearGradient><path fill="url(#g)" d="m48 156 25 57 23-8 6-4-49-51-6 4-5 5z"/><path fill="#1D2C5E" d="M295 183v3a28 28 0 0 0 15-6l-15 3M211 169l1 4c5-1 9-2 13-5l6-4-20 5z"/><path fill="#FFCB05" d="m79 208-2-5-23-52-1-1h-2l-4 2-2-4-10-16-2-4 4-2 13-7c9-4 19-6 28-6h9l11 4c5 3 9 8 12 13 1 4 2 9 1 14l-1 3 3-2 5-3 10-2 10 2 1 1v-2l-1-9v-1h-1l-4 1-1-15 30-9-1 12h3l6-12 19 17 1 1 1-1c2-3 5-5 9-6l1-1-1-1-3-4 22-26 12 18-18 9-4 2h4c9 1 16 4 21 10l2 3 1 1-2 2-1 2-4 4-1 1 1 1 4 4 2 1v-2l1-10 1-2v-3l3-14h22v-4h19l5 29v2l2-1a27 27 0 0 1 15-5 22 22 0 0 1 10 3h2v-4l1-2h-1l-4-1-1-15 30 7 2 11h2l3-10 24 6-25 76-18-6v-8h-1l-18-2 1-10v-2l-2 1a25 25 0 0 1-11 3h-4v1l1 8-26-4-1-12-1-4-1 3-3 6-6-10-2-3v3l-1 8-23-3 1-11 1-3-2 2a47 47 0 0 1-19 6h-1v21l-45-22-2-1v21l-20 3-1-9v-2l-2 1-9 6c-3 2-7 2-10 2-4 0-7 0-10-2-5-2-9-7-11-13v-12l-2 2-6 5v1l7 26 1 5-5 1-13 4-4 2zm6-71-2 1h-2v2l4 12v1l1 2 1-1 1-1c4-3 5-6 4-11 0-2-2-3-3-4l-4-1zm98 1-2 2-6 6-2 1 2 1 7 2 2 1-1-2v-11zm26-7a9 9 0 0 0-8 14l1 1 1 1 1-1 1-1 8-10 1-1 1-1-1-1h-1l-4-1z"/><path fill="#7D7F68" d="M223 146zM231 139l4-5-2 2-1 1-4 5 4 4 1-5 2 2z"/><path fill="#7D7F68" d="m231 139 4 4 1-10-1 1zM176 147z"/><path fill="#C7A008" d="m200 151 3-2-1-1c-4-3-3-11 0-16-7 6-7 14-2 19"/><path fill="#C7A008" d="M233 155a39 39 0 0 1-21 9c-11 1-20-4-23-12l-1-3a21 21 0 0 1 4-19v1l-4 3a21 21 0 0 0-2 21c4 8 13 13 23 12l5-1a39 39 0 0 0 19-11M157 135l12-17-12 16zM236 133l-1 10-2-2-1 5-4-4 4-5 1-1 2-2zM222 105l4-1-8-10-2 3zM106 130c-19-24-54-11-66 0v1l9-5c13-5 24-7 34-5 3 0 7 1 10 3 4 3 7 6 9 11 4 7 1 18-7 26 10-9 16-18 11-31zM145 157v-1c-1-4-3-7-6-9-5-4-12-4-19-2-4 2-7 4-9 7l6-4c7-3 14-2 19 1a16 16 0 0 1 7 11v4a24 24 0 0 1-6 15l4-5c3-3 5-8 5-12l-1-5"/><path fill="#C7A008" d="m126 151 3-3c-3 0-5 4-5 4l2-1M133 155a5 5 0 0 1 0 4s4-2 3-7l-3 3M117 158l4-8c-5 3-7 7-7 10 0 6 5 10 11 10 2 0 7-1 10-6l-8 3c-6 0-10-4-10-9M157 163v21l3 1v-25zM137 121v2l16-5 2 21 2-4v-21zM187 128l-16-14-2 4 14 13zM184 155l-18-6-2 3 18 7c2 4 5 7 9 10l12 4v9l3 1 1-13-23-15zM213 152c5-1 7-3 10-6-2 2-10 4-12 4l-2 3 4-1M205 122c-8 1-12 8-13 8l11-5c10-3 19 1 25 7l3-3c-5-6-15-10-26-7M233 155l4-3-11-9-3 3 10 9zM289 181c-11-9-11-29-5-36l-5-32-11 2-1 3h9l4 29c-5 6-8 15-6 23a21 21 0 0 0 12 14v1h4l-1-4zM245 118v3h12l4 20 3-3-3-21zM267 158l-4 10 1 3 5-16zM255 151l-3 3-3 19 3 1zM311 145l5 4 2 5c1 6-1 12-4 17l-2 1c2-1 20-14 2-32-19-6-26 7-27 8l7-5c6-2 13-1 17 2"/><path fill="#C7A008" d="m302 146 3-3c-4 1-6 2-5 3l-1 1 3-1M308 151v3s5-2 3-6l-3 3M299 165c4 0 8-2 11-6-8 1-16-12-15-13-3 2-6 6-6 9 0 6 4 10 10 10M343 200l1 1 23-68-17-4v4l14 3zM316 122v3l18 4 7 33 3-3-7-33zM329 159l-5 28 3 1 5-32zM95 198l-8-31-3 2 8 29zM93 151c-2 3-6 7-9 8l-1-5-3-10-2-7-3 2 3 7 3 11 1 5c4-2 9-6 11-11"/><path fill="#7D7F68" d="M213 133c-3-1-7 0-9 2l-1 2c1-1 5-2 7-1l3-3zM91 143l-3-3-5-1v3l3 1 2 2v6c2-2 3-5 3-8"/><path fill="#3C5AA6" d="M95 143c-1-6-9-10-17-5l2 7 3 10 1 5c6-4 12-9 11-17zm-8 9-3-9-1-3 5 1c1 0 2 1 2 3 1 3 0 6-3 8z"/><path fill="#3567B0" d="M217 133a11 11 0 1 0-14 17l15-16-1-1zm-14 12a7 7 0 0 1 9-11l-9 11z"/><path fill="#1E2D5F" d="m236 131-8 8 8 7z"/><path fill="#3466AF" d="M311 148v1c0 3-3 6-6 6-4-1-6-3-6-6s2-5 6-6h-2c-6 0-11 4-11 9 0 6 4 10 10 10 6 1 10-4 10-9 1-2 0-4-1-5"/><linearGradient id="h" gradientUnits="userSpaceOnUse" x1="703.1" y1="-1576.5" x2="723.7" y2="-1576.5" gradientTransform="matrix(1 0 0 -1 -586 -1419)"><stop offset="0" style="stop-color:#3c5aa6"/><stop offset=".9" style="stop-color:#2b73b9"/><stop offset="1" style="stop-color:#2a75bb"/></linearGradient><path fill="url(#h)" d="M136 154c0 3-3 6-6 6-4 0-6-3-6-6s2-5 5-6h-2c-6 0-10 5-10 10s4 9 10 9 10-4 10-9l-1-5v1"/><path fill="#3564AD" d="m347 123-3 10-2-11-32-7 1 17 4 1v4-1c-6-3-13-3-20 0l-7 3-5-30h-21v3h-22l-3 16-2-2c-5-7-13-11-22-11l19-10-13-19-24 27 5 5c-4 1-7 3-10 6l-20-18-8 14 1-14-32 11 1 17 5-2 1 9c-6-3-14-3-20 0l-6 3c1-5 1-10-1-15-3-5-7-10-12-13l-12-4c-11-2-25 0-38 6l-13 7-5 3 3 5 10 16 3 5 5-3h1l23 53 3 5 5-2 13-4 5-2-1-5-7-26 5-5 1 9c2 7 6 12 12 14 6 3 14 3 21 0l9-6 1 11 22-4v-20l47 23v-22l6-1 13-5-2 12 26 4 1-9 7 12 4-8 1 13 29 5-2-10a26 26 0 0 0 15-3l-1 11 19 2v8l20 6 26-78-27-6zm-112 11 1-1-1 10-4-4 4-5zm-17-40 7 10-20 9-1-2 14-17zM87 167l8 30-13 4-26-58-7 3-9-16c3-3 8-5 12-7 12-5 24-6 34-5l10 4c4 2 7 5 9 10 5 10-3 26-18 35zm59-5c0 4-2 9-5 12-3 4-6 7-11 9-11 5-22 0-25-11-3-10 4-22 15-27 7-2 14-2 19 2 3 2 5 5 6 9v1l1 5zm60 21-46-23v24l-12 2-1-10c4-7 5-14 3-21-1-4-3-7-6-10l-1-20-6 1v-5l19-6 1 20 15-20 14 13-20 21 18 7c2 4 6 7 9 10l13 4v13zm-24-34-6-2 6-6v8zm51 6a39 39 0 0 1-21 9c-11 1-20-4-23-12l-1-3a21 21 0 0 1 6-21l12-6c10-2 19 1 25 7l-20 21h5c5-2 7-4 10-7l7 7 3 2-3 3zm41 28-5-28-5 15-9-19-4 22-15-2 2-13 2-1 5-5-5-4 5-30h15l4 21 4-24h11l4 29c-6 6-8 15-6 23a21 21 0 0 0 12 15l1 3-16-2zm37-9-6 3-11 1-6-3c-3-2-5-5-6-9-1-5 0-10 2-15l5-6 8-4c6-3 13-2 17 1a15 15 0 0 1 6 9c2 6 0 12-4 17l-5 6zm33 26-11-3-1-41-5 32-12-2 1-9c7-7 12-17 9-27-1-4-3-8-6-10l1-11-4-1v-6l21 4 7 33 7-29 15 3-22 67z"/><path d="M353 204v-3h-1v-1h3v1h-1v3h-1zM355 204v-4h1l1 3 1-3h1v4h-1v-3l-1 3-1-3v3h-1z"/></svg>